<svg version="1.1" id="Layer_1" xmlns="http://www.w3.org/2000/svg" xmlns:xlink="http://www.w3.org/1999/xlink" x="0px" y="0px"
     width="100%" viewBox="0 0 512 512" enable-background="new 0 0 512 512" xml:space="preserve">
<path fill="#000000" opacity="1.000000" stroke="none"
      d="
M161.000000,513.000000
	C107.679199,513.000000 54.358402,513.000000 1.018802,513.000000
	C1.018802,342.385986 1.018802,171.771957 1.018802,1.078967
	C171.573883,1.078967 342.147797,1.078967 512.860840,1.078967
	C512.860840,171.666595 512.860840,342.333282 512.860840,513.000000
	C465.909851,513.000000 418.920959,513.000000 371.538696,512.727539
	C371.449707,511.983459 371.754089,511.511871 372.420532,510.986938
	C377.527313,508.248047 382.272064,505.562500 387.313446,502.740601
	C392.086121,498.098755 396.562134,493.593262 401.339478,488.927429
	C406.440247,484.877563 411.239716,480.988037 416.389771,477.036072
	C422.517914,473.665710 428.295471,470.357788 434.431091,466.997711
	C440.536346,463.996155 446.283539,461.046783 452.384003,458.036621
	C454.705261,456.860931 456.936218,456.040863 458.585907,454.569214
	C461.908478,451.605225 464.914612,448.286499 468.367432,444.939606
	C474.007202,436.908539 473.255707,431.127167 466.049255,424.551575
	C463.025452,421.805969 460.327881,418.898529 457.022552,417.121460
	C450.899261,413.829346 444.842773,410.343719 441.730713,404.023041
	C438.300385,397.055969 433.535339,390.866821 433.315460,382.083405
	C433.160797,375.905273 428.911591,369.744324 426.070435,363.775726
	C425.312469,362.183472 423.010010,361.326447 421.390533,360.112305
	C420.664459,363.526520 420.726593,366.647003 419.370392,368.921967
	C416.265625,374.130188 412.468048,378.925354 408.651306,384.022400
	C406.529419,385.679962 404.708038,387.203339 402.594147,388.779907
	C401.835114,389.153748 401.368561,389.474457 400.539062,389.848083
	C389.150421,396.561188 377.850616,397.892548 365.948608,391.399292
	C360.546112,387.411102 359.478607,381.727692 358.638428,375.564087
	C358.582397,374.082092 358.456360,373.005951 358.482239,371.522644
	C359.749725,365.869019 360.865265,360.622559 361.982086,355.370117
	C360.037994,354.967957 357.648926,354.473724 355.324188,353.524414
	C355.896637,337.298828 357.511841,321.468262 356.660767,305.771454
	C355.286499,280.424438 346.789673,257.433228 329.309021,238.325638
	C328.166687,237.076981 327.320068,235.237671 327.051178,233.558578
	C323.638367,212.244995 314.550415,193.163437 304.131958,174.241974
	C301.670319,168.468216 299.182281,163.053253 296.851562,157.336105
	C297.594360,154.678101 298.179932,152.322250 298.871033,149.572662
	C299.341187,146.454468 299.705872,143.730042 300.152283,140.650787
	C299.920349,139.171921 299.606689,138.047852 299.226379,136.560211
	C296.874817,134.137329 294.589905,132.077988 292.529907,129.723328
	C295.087555,124.276497 297.420319,119.125000 299.859528,113.609726
	C299.960449,112.492622 299.954895,111.739296 300.096405,110.637901
	C300.148499,107.531105 300.053558,104.772362 300.018555,101.639389
	C299.969147,100.518997 299.859802,99.772842 299.809540,98.708694
	C299.548431,97.611664 299.228210,96.832611 298.936157,95.666336
	C297.360260,91.770348 295.756195,88.261589 294.061829,84.431015
	C289.262756,77.721916 283.380554,73.557442 274.622131,74.019730
	C271.459991,74.904884 268.688599,75.871414 265.577759,76.898773
	C261.806427,80.957130 258.374512,84.954651 254.707977,89.225067
	C251.580078,96.175598 249.998688,102.830215 254.855316,109.754402
	C255.779099,112.023987 256.669495,113.911644 257.193115,115.529221
	C251.866791,114.457611 246.907257,113.656097 241.530518,112.747482
	C239.410126,112.843384 237.706955,113.046387 235.634674,113.224205
	C232.534149,114.079071 229.802750,114.959129 227.071533,115.482697
	C234.344040,105.492020 230.563873,96.549583 225.236435,87.381912
	C222.739182,84.772636 220.360504,82.477997 217.733398,79.936195
	C214.988708,79.121956 212.492462,78.554878 209.664368,77.915817
	C208.893417,77.941948 208.454300,78.040070 207.661499,78.096481
	C204.804932,79.956322 202.302017,81.857872 199.488647,83.935242
	C198.086838,88.045555 196.995468,91.980026 195.766571,96.371201
	C195.905594,102.203445 196.182129,107.578987 196.393738,113.347214
	C197.194412,120.632477 199.165527,127.039062 204.204956,132.332169
	C202.853348,134.034378 201.664230,135.429749 200.214645,137.019821
	C199.035568,138.561310 197.626144,139.797760 197.293701,141.276352
	C196.421921,145.153503 193.052734,149.026108 196.918823,153.427704
	C199.161697,155.482697 201.243393,157.236191 203.260498,159.412491
	C202.827301,165.907196 202.458694,171.979095 202.009079,178.427673
	C200.646469,187.369873 195.518219,193.981445 190.802429,200.818649
	C184.770386,209.564224 178.472351,218.185806 176.145294,229.254700
	C175.337021,240.096832 173.924850,250.384949 166.855621,259.273865
	C150.098892,288.076782 140.828308,318.598206 141.424011,351.928467
	C138.426468,347.969452 134.750366,344.276733 133.326950,339.858337
	C129.715485,328.647949 128.990723,316.984619 131.599365,305.377869
	C135.443268,288.275146 143.975510,273.204407 152.557465,258.177246
	C153.039215,257.333679 153.372421,256.405334 153.774765,255.516449
	C153.402924,255.289841 153.031082,255.063217 152.659241,254.836609
	C149.861618,258.686401 146.336472,262.205414 144.406540,266.449738
	C139.187210,277.928131 134.369736,289.612427 129.987640,301.435516
	C128.479660,305.504089 128.045074,310.268005 128.325043,314.637054
	C128.837723,322.637817 129.306244,330.286530 122.521370,334.264954
	C126.351875,339.281342 130.102631,343.777679 133.378006,348.597046
	C136.804962,353.639496 140.032303,358.660797 147.230347,359.225647
	C158.625366,368.885681 169.786438,378.312164 180.843231,387.859375
	C187.236237,393.379578 193.970184,398.633270 199.610291,404.858856
	C204.672043,410.446045 207.335892,417.570404 203.216125,425.042908
	C199.205887,432.316742 192.172134,432.674194 184.917175,431.882874
	C184.587128,431.846863 184.259842,431.785614 183.818192,431.435608
	C180.207504,426.417419 176.709885,421.699677 173.102600,416.640198
	C170.364441,411.713287 167.973236,406.971069 165.061859,402.573212
	C157.158005,390.633789 149.033691,378.840302 140.858124,366.680023
	C138.076294,362.749207 135.578613,359.009521 132.761108,355.528748
	C125.835609,346.972870 117.640411,346.253082 108.771248,353.323181
	C105.035179,357.717407 101.117661,361.756348 98.336960,366.466431
	C93.406754,374.817505 86.895638,379.658783 76.868271,379.038025
	C73.393234,378.822876 69.886467,378.859741 66.406700,379.032867
	C57.846478,379.458801 50.285480,383.677612 50.101875,394.653259
	C49.966366,402.753387 50.778606,410.869354 51.094574,419.401886
	C51.069256,426.211731 51.117939,432.597992 51.081486,439.360474
	C48.387394,446.153809 45.778435,452.570831 43.076763,459.396240
	C41.477695,464.844177 40.873680,469.761566 45.066174,474.362610
	C50.465763,476.815613 55.712143,478.956238 61.176880,481.400513
	C67.919662,483.505096 74.444084,485.306061 81.193680,487.404053
	C87.917282,489.152710 94.415710,490.604340 101.158340,492.356506
	C109.594284,494.709900 117.786018,496.762817 126.366440,498.886169
	C127.547684,499.161926 128.361328,499.308014 129.129517,499.581726
	C136.073822,502.056213 143.010208,504.553040 150.161041,507.332092
	C152.000717,508.290283 153.682632,508.853973 155.242172,509.655670
	C157.213562,510.669098 159.085281,511.876343 161.000000,513.000000
M408.022247,360.773071
	C406.381409,364.104004 404.740570,367.434906 403.099762,370.765839
	C403.324738,371.158966 403.549744,371.552124 403.774750,371.945251
	C407.900879,369.351959 412.027008,366.758667 416.747681,363.775940
	C420.089935,358.269623 419.296753,353.145203 413.306671,351.406464
	C402.976929,348.408112 392.230927,346.843658 381.013763,344.387451
	C381.224609,342.736389 381.155182,340.987885 381.690094,339.449493
	C386.564545,325.429993 391.387848,311.478149 390.081268,296.194672
	C388.679749,279.800964 382.446442,265.994049 369.660950,255.413757
	C368.290100,254.279327 366.529633,253.615753 364.949921,252.733749
	C374.635681,261.372589 381.171783,271.556885 384.317841,283.897339
	C388.323944,299.611450 386.028595,314.993927 381.293427,330.123016
	C379.063629,337.247284 379.051941,345.973999 369.604614,348.567261
	C373.652802,348.567261 377.700958,348.567261 382.599030,348.854797
	C391.996033,350.496216 401.953644,350.859894 408.022247,360.773071
M282.003571,48.601707
	C284.296143,47.272930 286.654938,46.045364 288.869385,44.597130
	C296.723236,39.460747 296.704559,39.432209 304.609131,41.594830
	C303.441650,37.504501 294.659973,27.635920 288.945068,24.613420
	C287.370392,23.780613 284.208954,23.389341 283.390594,24.279770
	C282.135742,25.645124 281.274323,28.782049 282.013641,30.313988
	C284.543945,35.556969 283.406860,40.206951 281.293396,45.071228
	C280.830322,46.136909 281.282013,47.600033 282.003571,48.601707
M329.931580,176.784760
	C333.615540,177.427002 336.181152,175.321655 336.441772,172.250214
	C336.707916,169.113388 336.289764,164.770966 334.322388,162.839783
	C330.639313,159.224472 325.759033,156.709122 321.108032,154.243103
	C318.171143,152.685928 315.140656,155.249878 316.562622,158.124817
	C319.869263,164.810043 321.802032,172.607498 329.931580,176.784760
M367.498566,279.837097
	C373.090973,280.127747 375.236237,278.700226 373.673615,275.434296
	C371.163452,270.187897 367.097565,266.285126 360.919861,263.934113
	C365.521698,271.029114 357.329224,274.737000 356.982178,281.228394
	C360.550751,280.705688 363.577606,280.262329 367.498566,279.837097
M287.898346,70.463287
	C290.459259,72.507027 293.020172,74.550766 295.581085,76.594498
	C296.029663,76.428070 296.478241,76.261642 296.926849,76.095215
	C296.286407,74.306137 296.169952,71.661293 294.907440,70.888298
	C291.106964,68.561386 287.948517,63.787792 281.965942,67.011841
	C283.738129,68.029373 285.510284,69.046898 287.898346,70.463287
M227.157455,77.665504
	C225.795700,71.595482 220.879837,69.932022 215.604584,68.697609
	C219.240952,71.687073 222.877335,74.676544 227.157455,77.665504
M242.106964,101.456657
	C243.717545,101.653679 245.328125,101.850700 246.938705,102.047722
	C246.873383,102.278984 246.808075,102.510254 246.742767,102.741524
	C245.314835,102.489037 243.886902,102.236549 242.106964,101.456657
z"/>
    <path fill="#010101" opacity="1.000000" stroke="none"
          d="
M346.000000,513.000000
	C291.312439,513.000000 236.624878,513.000000 181.484344,512.639893
	C182.846588,511.257172 184.636063,510.185425 186.481155,509.219910
	C198.696014,502.827911 205.874985,493.192383 206.045593,478.541962
	C205.317841,472.702606 204.569031,467.324615 203.788315,461.595215
	C202.869568,458.771729 201.982697,456.299561 201.471100,453.840363
	C219.994354,462.320251 238.957611,465.151825 258.762878,462.018372
	C282.874847,458.203552 301.667328,445.165009 318.278412,427.790070
	C322.709076,423.870392 326.803314,419.947662 330.905457,416.458771
	C329.980408,424.922729 329.047485,432.952789 328.014282,441.376282
	C326.667755,449.171234 325.421478,456.572815 324.109375,464.404480
	C323.711395,470.886627 323.379272,476.938629 323.020905,483.427979
	C323.105774,497.591400 328.880951,505.508453 341.959076,510.160919
	C343.453583,510.692566 344.660004,512.033997 346.000000,513.000000
z"/>
    <path fill="#462800" opacity="1.000000" stroke="none"
          d="
M346.468628,513.000000
	C344.660004,512.033997 343.453583,510.692566 341.959076,510.160919
	C328.880951,505.508453 323.105774,497.591400 323.390442,483.436890
	C327.120605,484.346130 330.455048,485.683746 334.017334,487.279327
	C340.096497,494.859619 348.502563,497.457184 357.045654,500.209900
	C362.067932,504.059113 367.063202,507.549683 372.058502,511.040253
	C371.754089,511.511871 371.449707,511.983459 371.072632,512.727539
	C362.979095,513.000000 354.958191,513.000000 346.468628,513.000000
z"/>
    <path fill="#482A00" opacity="1.000000" stroke="none"
          d="
M206.024506,479.003296
	C205.874985,493.192383 198.696014,502.827911 186.481155,509.219910
	C184.636063,510.185425 182.846588,511.257172 181.015686,512.639893
	C174.645599,513.000000 168.291214,513.000000 161.468414,513.000000
	C159.085281,511.876343 157.213562,510.669098 155.242172,509.655670
	C153.682632,508.853973 152.000717,508.290283 150.472031,507.172180
	C152.205109,505.360779 153.839310,503.998047 155.858261,502.701538
	C162.641357,502.985565 169.247269,504.323334 175.394150,503.184235
	C187.581848,500.925659 194.538895,492.106323 199.234650,480.984558
	C201.752808,480.324585 203.888657,479.663940 206.024506,479.003296
z"/>
    <path fill="#FCFCF9" opacity="1.000000" stroke="none"
          d="
M317.941956,427.786987
	C301.667328,445.165009 282.874847,458.203552 258.762878,462.018372
	C238.957611,465.151825 219.994354,462.320251 201.442719,453.880676
	C201.039047,453.908051 201.117355,453.968201 201.089905,453.674286
	C200.696991,453.258301 200.331528,453.136200 199.812317,452.714600
	C196.496140,448.423828 193.333710,444.432556 190.078949,440.133423
	C187.968170,437.129089 185.949722,434.432617 183.931259,431.736115
	C184.259842,431.785614 184.587128,431.846863 184.917175,431.882874
	C192.172134,432.674194 199.205887,432.316742 203.216125,425.042908
	C207.335892,417.570404 204.672043,410.446045 199.610291,404.858856
	C193.970184,398.633270 187.236237,393.379578 180.843231,387.859375
	C169.786438,378.312164 158.625366,368.885681 147.115265,358.908752
	C145.072098,356.227386 143.421677,354.045868 141.771271,351.864349
	C140.828308,318.598206 150.098892,288.076782 167.203552,259.261383
	C174.519836,254.652420 181.226303,250.278854 188.272461,245.798798
	C193.104019,243.695419 197.595871,241.698532 202.087723,239.701645
	C202.001251,239.458771 201.914780,239.215912 201.828308,238.973038
	C196.892548,238.973038 191.956787,238.973038 186.704819,238.831238
	C181.000412,237.532700 179.321716,232.544846 176.311447,228.932205
	C178.472351,218.185806 184.770386,209.564224 190.802429,200.818649
	C195.518219,193.981445 200.646469,187.369873 202.296326,178.619720
	C205.675369,187.347321 211.227493,194.490585 218.253632,200.550949
	C228.770111,209.621857 235.633011,209.987656 247.413071,202.349579
	C249.777512,200.816483 252.323166,199.559814 254.665726,197.996552
	C264.009064,191.761536 273.496796,185.716522 282.540802,179.070145
	C287.322510,175.556076 291.857605,173.840485 297.746094,175.498367
	C299.632172,176.029404 301.972870,174.945679 304.105560,174.600769
	C314.550415,193.163437 323.638367,212.244995 327.051178,233.558578
	C327.320068,235.237671 328.166687,237.076981 329.309021,238.325638
	C346.789673,257.433228 355.286499,280.424438 356.660767,305.771454
	C357.511841,321.468262 355.896637,337.298828 354.953430,353.570740
	C352.287170,353.607941 350.021606,353.267334 347.830872,352.657806
	C339.069885,350.220032 336.348999,352.070679 335.497192,361.077942
	C333.730255,364.362427 331.539856,367.412445 331.019012,370.724976
	C330.393524,374.702911 331.190186,378.904510 331.256561,383.246948
	C331.076569,383.647888 331.011078,383.811096 330.502869,383.963074
	C317.740234,383.045685 314.129944,388.669098 315.055115,398.671967
	C315.953217,408.382904 316.974670,418.082458 317.941956,427.786987
M226.020096,241.845032
	C226.483505,245.521011 226.946915,249.196991 227.395752,252.757370
	C229.239838,249.230438 231.126968,245.621185 233.615967,241.709351
	C236.362869,239.522461 239.109772,237.335571 241.856674,235.148682
	C241.044449,235.748962 240.232224,236.349243 239.419998,236.949524
	C236.199554,233.146057 232.979095,229.342606 230.087967,225.928070
	C228.902985,231.669418 222.861801,233.565750 216.921509,235.178238
	C220.066635,237.203674 223.023788,239.108063 226.020096,241.845032
M308.305634,230.057541
	C306.536865,231.034241 304.768127,232.010941 302.190063,233.086472
	C291.804321,234.073883 281.418610,235.061295 270.095795,236.000595
	C265.784912,236.000595 261.474030,236.000595 257.163147,236.000595
	C257.149628,236.260010 257.136078,236.519424 257.122528,236.778854
	C261.759644,237.502518 266.396729,238.226166 271.864685,238.977524
	C275.917511,239.621735 279.970306,240.265930 284.797729,241.069382
	C298.833618,244.033203 312.067566,248.951172 324.275848,257.715973
	C326.836487,259.865265 329.397125,262.014557 332.060181,264.821136
	C334.618622,267.218597 337.177063,269.616058 339.735504,272.013519
	C340.322662,271.740997 340.909851,271.468445 341.497040,271.195923
	C340.556152,267.563202 340.342621,263.509094 338.530518,260.381073
	C334.077271,252.694229 328.888184,245.433670 323.990387,237.195511
	C322.415100,228.851547 320.839783,220.507584 319.606812,213.976974
	C316.650940,218.430084 312.823212,224.196671 308.305634,230.057541
M214.996368,334.389160
	C214.939377,336.218964 215.079269,338.080200 214.793060,339.873413
	C213.094101,350.517944 213.679489,361.046417 216.360107,371.449310
	C216.891129,373.510101 218.038162,375.412140 219.045181,377.717072
	C219.710648,344.085571 220.362076,311.164551 221.013489,278.243500
	C215.652496,296.351013 215.112488,314.862213 214.996368,334.389160
z"/>
    <path fill="#FFBD00" opacity="1.000000" stroke="none"
          d="
M109.101898,353.270233
	C117.640411,346.253082 125.835609,346.972870 132.761108,355.528748
	C135.578613,359.009521 138.076294,362.749207 140.812958,367.057190
	C149.605026,384.953796 158.886612,401.808594 171.069473,417.297272
	C175.497742,425.028961 179.798492,432.434418 184.071564,440.246185
	C185.260498,446.290100 186.671478,451.894318 187.648254,457.573181
	C189.116882,466.111542 185.453415,480.817505 174.325928,486.466431
	C164.089706,491.662872 153.909912,491.146240 144.061584,486.757202
	C120.630180,476.314697 94.936897,474.648956 70.720695,467.246918
	C62.416214,464.708557 54.647942,463.101257 53.063213,452.627197
	C54.136967,449.536285 55.156208,446.808380 56.505737,443.993591
	C62.981270,437.450714 61.236683,429.595459 60.381847,422.070129
	C60.062897,419.262329 58.251396,416.624023 57.102383,413.470276
	C56.805519,410.739746 56.629890,408.429260 56.230244,406.158173
	C54.417572,395.857239 59.656937,386.729370 68.235374,386.113861
	C72.982605,385.773224 77.878777,385.990662 82.575508,386.762054
	C94.376228,388.700287 102.571609,383.663818 104.918282,372.549286
	C106.276718,366.115295 107.705032,359.696106 109.101898,353.270233
z"/>
    <path fill="#FEBF00" opacity="1.000000" stroke="none"
          d="
M335.813263,360.959717
	C336.348999,352.070679 339.069885,350.220032 347.830872,352.657806
	C350.021606,353.267334 352.287170,353.607941 354.889099,354.025818
	C357.648926,354.473724 360.037994,354.967957 361.982086,355.370117
	C360.865265,360.622559 359.749725,365.869019 358.148163,371.556702
	C354.410156,374.300385 353.967255,377.432434 355.001099,381.333801
	C355.004333,382.109833 355.009583,382.553284 355.000854,383.425110
	C354.984497,385.567566 354.982117,387.281647 354.726501,389.250366
	C354.651001,392.290588 354.857697,395.074738 355.001373,397.862091
	C355.650360,410.451599 364.337585,418.656494 375.946808,418.184265
	C388.800690,417.661438 397.171295,410.616089 404.311523,401.285736
	C408.154266,396.264252 412.722748,391.092590 408.951782,383.888245
	C412.468048,378.925354 416.265625,374.130188 419.370392,368.921967
	C420.726593,366.647003 420.664459,363.526520 421.390533,360.112305
	C423.010010,361.326447 425.312469,362.183472 426.070435,363.775726
	C428.911591,369.744324 433.160797,375.905273 433.315460,382.083405
	C433.535339,390.866821 438.300385,397.055969 441.730713,404.023041
	C444.842773,410.343719 450.899261,413.829346 457.022552,417.121460
	C460.327881,418.898529 463.025452,421.805969 466.002350,424.973541
	C466.016327,427.158295 466.025146,428.572937 465.756775,430.187561
	C463.749237,433.005493 462.209167,435.775970 460.254333,438.213867
	C453.351288,446.822510 443.253693,449.190857 433.298645,452.051361
	C424.743225,454.509705 416.130859,457.102142 408.041290,460.741333
	C401.915710,463.497040 396.617523,468.063812 390.873688,471.702362
	C380.152008,478.494110 368.132233,481.008362 355.734497,480.830841
	C343.912445,480.661591 335.857239,471.110718 337.173187,460.838623
	C338.964386,446.856689 340.393036,432.818146 337.725525,418.376160
	C337.463104,416.000397 337.232300,414.000183 337.069092,411.535980
	C337.369110,402.389221 337.601471,393.706512 337.900940,384.560425
	C337.249725,376.384613 336.531494,368.672150 335.813263,360.959717
z"/>
    <path fill="#B7B7B5" opacity="1.000000" stroke="none"
          d="
M304.131958,174.241974
	C301.972870,174.945679 299.632172,176.029404 297.746094,175.498367
	C291.857605,173.840485 287.322510,175.556076 282.540802,179.070145
	C273.496796,185.716522 264.009064,191.761536 254.665726,197.996552
	C252.323166,199.559814 249.777512,200.816483 247.413071,202.349579
	C235.633011,209.987656 228.770111,209.621857 218.253632,200.550949
	C211.227493,194.490585 205.675369,187.347321 202.377335,178.243042
	C202.458694,171.979095 202.827301,165.907196 203.494049,159.631531
	C207.955673,164.333862 212.418274,169.020096 216.219742,174.192276
	C223.908691,184.653702 239.039505,188.712006 255.641479,181.159271
	C260.492126,178.434219 264.994049,175.739517 269.813812,172.991882
	C276.694672,168.903091 283.257660,164.867233 290.180695,160.854141
	C292.591919,159.797348 294.643097,158.717819 296.694275,157.638275
	C299.182281,163.053253 301.670319,168.468216 304.131958,174.241974
z"/>
    <path fill="#E79901" opacity="1.000000" stroke="none"
          d="
M289.820648,160.831390
	C283.257660,164.867233 276.694672,168.903091 269.355835,172.983917
	C260.609894,173.688263 252.647247,174.631088 244.665283,174.841614
	C242.132004,174.908432 239.547241,173.023788 237.184143,171.754059
	C239.221695,169.474121 241.061157,167.472290 243.232330,165.313293
	C253.049362,163.204636 262.241272,160.483887 270.087494,154.503067
	C271.268524,153.602814 272.028259,152.149857 272.992065,150.976273
	C273.001282,150.999969 272.955200,150.978485 273.277710,151.075531
	C274.067230,150.764359 274.534271,150.356125 275.002502,149.975998
	C275.003723,150.004105 274.949280,149.990021 275.208221,149.957687
	C275.641724,149.638138 275.816284,149.350922 276.056885,148.719162
	C279.423767,145.575607 282.724640,142.776581 286.234100,139.877045
	C286.701538,139.590515 286.886963,139.348343 287.374268,139.029633
	C288.500519,139.005234 289.251556,139.001175 289.898743,139.298431
	C289.439972,142.130081 290.206146,143.309540 292.999481,142.538788
	C295.320770,141.898315 297.710907,141.507187 300.070526,141.005600
	C299.705872,143.730042 299.341187,146.454468 298.551666,149.643250
	C295.358063,153.682190 292.589355,157.256790 289.820648,160.831390
z"/>
    <path fill="#F8F7F5" opacity="1.000000" stroke="none"
          d="
M299.750427,99.026680
	C299.859802,99.772842 299.969147,100.518997 299.745056,101.921158
	C299.590881,105.380096 299.770142,108.183029 299.949371,110.985962
	C299.954895,111.739296 299.960449,112.492622 299.527710,113.682678
	C295.710724,119.121826 292.332062,124.124260 288.557068,129.121307
	C284.402740,127.856789 280.644745,126.597679 277.297058,125.293564
	C289.054260,125.139717 294.668335,109.494125 287.761810,98.984695
	C284.654144,94.255852 280.176605,91.278801 274.350037,92.218399
	C268.481171,93.164803 265.560181,97.520897 263.937378,102.978577
	C262.126923,109.067429 263.832916,114.665489 265.601501,120.158066
	C263.533447,119.263321 261.809082,118.465569 259.964355,117.467110
	C259.082642,116.777374 258.321289,116.288338 257.559906,115.799309
	C256.669495,113.911644 255.779099,112.023987 254.921875,109.278946
	C253.664200,100.859833 257.226349,94.476501 260.187927,87.673431
	C261.635559,86.999870 262.836456,86.540314 264.430542,86.112045
	C265.865265,86.013657 266.906799,85.883980 268.368103,85.810730
	C270.478882,85.821663 272.169861,85.776192 274.299133,85.820206
	C279.160004,86.937180 283.582611,87.964653 288.284180,89.156433
	C290.050659,90.190811 291.538269,91.060875 293.228180,92.196198
	C294.929382,93.723251 296.428253,94.985054 297.948914,96.561188
	C298.563965,97.592567 299.157227,98.309624 299.750427,99.026680
z"/>
    <path fill="#CB8400" opacity="1.000000" stroke="none"
          d="
M108.771255,353.323181
	C107.705032,359.696106 106.276718,366.115295 104.918282,372.549286
	C102.571609,383.663818 94.376228,388.700287 82.575508,386.762054
	C77.878777,385.990662 72.982605,385.773224 68.235374,386.113861
	C59.656937,386.729370 54.417572,395.857239 56.230244,406.158173
	C56.629890,408.429260 56.805519,410.739746 57.061569,413.859497
	C57.013561,415.465485 56.988293,416.244080 56.619232,417.052063
	C54.573158,417.713715 52.870869,418.346008 51.168579,418.978271
	C50.778606,410.869354 49.966366,402.753387 50.101875,394.653259
	C50.285480,383.677612 57.846478,379.458801 66.406700,379.032867
	C69.886467,378.859741 73.393234,378.822876 76.868271,379.038025
	C86.895638,379.658783 93.406754,374.817505 98.336960,366.466431
	C101.117661,361.756348 105.035179,357.717407 108.771255,353.323181
z"/>
    <path fill="#FDD404" opacity="1.000000" stroke="none"
          d="
M260.084686,117.667816
	C261.809082,118.465569 263.533447,119.263321 265.844971,120.392944
	C269.916962,122.262733 273.401855,123.800652 276.886749,125.338562
	C280.644745,126.597679 284.402740,127.856789 288.765594,129.336304
	C290.348633,129.710693 291.326843,129.864670 292.305023,130.018646
	C294.589905,132.077988 296.874817,134.137329 298.800903,136.585052
	C295.628906,137.647980 292.815765,138.322556 290.002594,138.997131
	C289.251556,139.001175 288.500519,139.005234 287.154358,139.114716
	C286.284424,139.404266 286.106506,139.656754 286.025482,139.977570
	C282.724640,142.776581 279.423767,145.575607 275.769012,148.740234
	C275.259857,149.400574 275.104584,149.695297 274.949280,149.990021
	C274.949280,149.990021 275.003723,150.004105 274.685486,149.874023
	C273.896576,150.155457 273.425873,150.566971 272.955200,150.978485
	C272.955200,150.978485 273.001282,150.999969 272.642639,151.007690
	C268.857941,153.018784 265.431946,155.022141 262.003723,156.583710
	C261.327271,149.759567 260.652985,143.377182 259.989624,136.629303
	C259.994171,134.184189 259.987762,132.104599 259.986938,129.559387
	C260.023224,125.285126 260.053955,121.476471 260.084686,117.667816
z"/>
    <path fill="#F8F7F5" opacity="1.000000" stroke="none"
          d="
M196.458679,112.954529
	C196.182129,107.578987 195.905594,102.203445 196.097107,96.321213
	C198.433289,93.921326 200.301407,92.028114 202.513062,90.091797
	C204.672470,89.073647 206.488327,88.098610 208.693420,87.119560
	C210.404160,87.035393 211.725662,86.955231 213.460815,86.903656
	C215.257736,86.915497 216.641006,86.898735 218.433258,86.936607
	C221.013153,87.226349 223.184082,87.461456 225.354996,87.696564
	C230.563873,96.549583 234.344040,105.492020 227.004059,115.496826
	C226.936386,115.867455 226.913239,116.003365 226.501617,116.050865
	C224.805084,116.625420 223.520172,117.152481 222.355560,117.193680
	C223.808411,109.471329 222.889221,102.547478 217.588486,97.261299
	C215.561768,95.240128 211.532364,93.719650 208.896332,94.270706
	C206.584595,94.753960 204.012314,98.157021 203.174011,100.786499
	C199.903992,111.043655 203.262802,119.166183 212.298630,125.275925
	C211.849213,125.850433 211.550919,126.232712 211.018646,126.771164
	C209.916550,127.644188 209.048431,128.361038 207.823990,129.023834
	C204.854660,125.745781 202.100830,122.622963 199.683624,119.258308
	C198.321991,117.362984 197.515350,115.068954 196.458679,112.954529
z"/>
    <path fill="#F8C400" opacity="1.000000" stroke="none"
          d="
M227.003860,115.853317
	C229.802750,114.959129 232.534149,114.079071 235.634583,113.674789
	C236.335693,130.756668 236.667801,147.362778 236.601883,164.068726
	C233.474411,164.341919 230.744949,164.515274 228.011047,164.243591
	C227.642151,147.866837 227.277695,131.935104 226.913239,116.003365
	C226.913239,116.003365 226.936386,115.867455 227.003860,115.853317
z"/>
    <path fill="#EEA700" opacity="1.000000" stroke="none"
          d="
M408.651306,384.022400
	C412.722748,391.092590 408.154266,396.264252 404.311523,401.285736
	C397.171295,410.616089 388.800690,417.661438 375.946808,418.184265
	C364.337585,418.656494 355.650360,410.451599 355.001373,397.862091
	C354.857697,395.074738 354.651001,392.290588 354.982483,389.251892
	C355.662170,388.998718 355.832672,388.998596 356.009430,389.366699
	C357.680725,392.487518 359.345795,395.240082 361.012085,398.366425
	C361.432129,399.984802 361.579285,401.425842 362.314056,402.441986
	C366.902557,408.787659 372.716400,413.387665 380.976135,412.921021
	C389.643036,412.431427 395.867035,407.633362 399.806976,400.123596
	C400.868622,398.100037 400.559082,395.357147 400.896332,392.705933
	C400.913727,392.467407 400.974182,391.992981 401.283844,391.843262
	C402.024536,390.704620 402.455566,389.715698 402.886627,388.726746
	C404.708038,387.203339 406.529419,385.679962 408.651306,384.022400
z"/>
    <path fill="#787879" opacity="1.000000" stroke="none"
          d="
M381.749146,348.567261
	C377.700958,348.567261 373.652802,348.567261 369.604614,348.567261
	C379.051941,345.973999 379.063629,337.247284 381.293427,330.123016
	C386.028595,314.993927 388.323944,299.611450 384.317841,283.897339
	C381.171783,271.556885 374.635681,261.372589 364.949921,252.733749
	C366.529633,253.615753 368.290100,254.279327 369.660950,255.413757
	C382.446442,265.994049 388.679749,279.800964 390.081268,296.194672
	C391.387848,311.478149 386.564545,325.429993 381.690094,339.449493
	C381.155182,340.987885 381.224609,342.736389 381.405914,344.843628
	C381.781769,346.388947 381.765442,347.478088 381.749146,348.567261
z"/>
    <path fill="#6C6C6C" opacity="1.000000" stroke="none"
          d="
M141.424011,351.928467
	C143.421677,354.045868 145.072098,356.227386 146.837585,358.725800
	C140.032303,358.660797 136.804962,353.639496 133.378006,348.597046
	C130.102631,343.777679 126.351875,339.281342 122.521370,334.264954
	C129.306244,330.286530 128.837723,322.637817 128.325043,314.637054
	C128.045074,310.268005 128.479660,305.504089 129.987640,301.435516
	C134.369736,289.612427 139.187210,277.928131 144.406540,266.449738
	C146.336472,262.205414 149.861618,258.686401 152.659241,254.836609
	C153.031082,255.063217 153.402924,255.289841 153.774765,255.516449
	C153.372421,256.405334 153.039215,257.333679 152.557465,258.177246
	C143.975510,273.204407 135.443268,288.275146 131.599365,305.377869
	C128.990723,316.984619 129.715485,328.647949 133.326950,339.858337
	C134.750366,344.276733 138.426468,347.969452 141.424011,351.928467
z"/>
    <path fill="#A56608" opacity="1.000000" stroke="none"
          d="
M255.292740,181.189667
	C239.039505,188.712006 223.908691,184.653702 216.219742,174.192276
	C212.418274,169.020096 207.955673,164.333862 203.558655,159.208725
	C201.243393,157.236191 199.161697,155.482697 197.353607,153.386124
	C199.071030,153.043045 200.514847,153.043045 202.166290,153.296265
	C204.256699,154.685989 206.139465,155.822479 208.119476,157.164368
	C208.483337,157.735809 208.749939,158.101852 209.123260,158.808441
	C209.843567,159.424530 210.457169,159.700058 211.042023,159.959534
	C211.013245,159.943481 211.053055,159.890457 211.053894,160.248047
	C213.380981,162.385437 215.707214,164.165253 217.789932,166.144714
	C218.667679,167.999069 219.464706,170.070206 220.964874,171.238312
	C228.489655,177.097549 236.985153,180.269562 246.685425,180.075287
	C249.545944,180.018021 252.423172,180.794998 255.292740,181.189667
z"/>
    <path fill="#FBD411" opacity="1.000000" stroke="none"
          d="
M259.964355,117.467110
	C260.053955,121.476471 260.023224,125.285126 259.638641,129.515564
	C256.491394,130.823685 253.419785,131.249084 250.980148,132.721542
	C248.358871,134.303680 246.331009,136.868988 243.750977,138.737885
	C242.954391,129.931839 242.451050,121.393211 241.947723,112.854584
	C246.907257,113.656097 251.866791,114.457611 257.193115,115.529221
	C258.321289,116.288338 259.082642,116.777374 259.964355,117.467110
M248.032806,118.379349
	C248.022659,119.237701 247.755417,120.736404 248.043457,120.852051
	C250.150406,121.697968 252.368729,122.266434 254.551910,122.922440
	C254.804825,122.118996 255.057739,121.315552 255.310669,120.512100
	C253.130341,119.739952 250.950027,118.967804 248.032806,118.379349
z"/>
    <path fill="#787879" opacity="1.000000" stroke="none"
          d="
M281.658020,48.740913
	C281.282013,47.600033 280.830322,46.136909 281.293396,45.071228
	C283.406860,40.206951 284.543945,35.556969 282.013641,30.313988
	C281.274323,28.782049 282.135742,25.645124 283.390594,24.279770
	C284.208954,23.389341 287.370392,23.780613 288.945068,24.613420
	C294.659973,27.635920 303.441650,37.504501 304.609131,41.594830
	C296.704559,39.432209 296.723236,39.460747 288.869385,44.597130
	C286.654938,46.045364 284.296143,47.272930 281.658020,48.740913
z"/>
    <path fill="#7F7F80" opacity="1.000000" stroke="none"
          d="
M329.579407,176.643509
	C321.802032,172.607498 319.869263,164.810043 316.562622,158.124817
	C315.140656,155.249878 318.171143,152.685928 321.108032,154.243103
	C325.759033,156.709122 330.639313,159.224472 334.322388,162.839783
	C336.289764,164.770966 336.707916,169.113388 336.441772,172.250214
	C336.181152,175.321655 333.615540,177.427002 329.579407,176.643509
z"/>
    <path fill="#DA9101" opacity="1.000000" stroke="none"
          d="
M361.010864,397.992676
	C359.345795,395.240082 357.680725,392.487518 356.260406,389.170837
	C356.008362,386.736755 355.511597,384.866730 355.014801,382.996704
	C355.009583,382.553284 355.004333,382.109833 355.258789,381.130310
	C356.535126,379.052765 357.551758,377.511383 358.568420,375.969971
	C359.478607,381.727692 360.546112,387.411102 365.922974,391.769653
	C369.099823,397.774353 373.172577,401.878906 379.797241,400.881104
	C384.613373,400.155762 389.262482,398.321472 393.986816,397.349854
	C390.409515,407.315704 378.257019,410.124786 370.762360,403.454346
	C368.044434,401.035370 364.291504,399.779358 361.010864,397.992676
z"/>
    <path fill="#F8CC07" opacity="1.000000" stroke="none"
          d="
M241.530518,112.747482
	C242.451050,121.393211 242.954391,129.931839 243.694214,139.090439
	C242.479095,142.460663 240.612198,145.080170 239.693588,147.998199
	C238.788574,150.873001 237.139587,154.558105 242.039795,156.433014
	C242.395569,158.877335 242.697174,160.938660 242.659912,163.176147
	C240.547333,163.557846 238.773621,163.763367 236.999908,163.968872
	C236.667801,147.362778 236.335693,130.756668 236.003677,113.699982
	C237.706955,113.046387 239.410126,112.843384 241.530518,112.747482
z"/>
    <path fill="#434343" opacity="1.000000" stroke="none"
          d="
M382.174072,348.711029
	C381.765442,347.478088 381.781769,346.388947 381.728821,344.988647
	C392.230927,346.843658 402.976929,348.408112 413.306671,351.406464
	C419.296753,353.145203 420.089935,358.269623 416.271851,363.648804
	C413.214386,362.355011 410.632751,361.188385 408.051117,360.021729
	C401.953644,350.859894 391.996033,350.496216 382.174072,348.711029
z"/>
    <path fill="#503000" opacity="1.000000" stroke="none"
          d="
M372.420532,510.986938
	C367.063202,507.549683 362.067932,504.059113 357.507874,500.196838
	C366.009857,500.820557 373.626678,499.133850 381.044556,496.301453
	C383.069214,498.721954 385.042999,500.799438 387.016785,502.876953
	C382.272064,505.562500 377.527313,508.248047 372.420532,510.986938
z"/>
    <path fill="#D0D0CE" opacity="1.000000" stroke="none"
          d="
M176.145294,229.254700
	C179.321716,232.544846 181.000412,237.532700 186.740601,239.221222
	C187.372650,241.803772 187.652710,243.854523 187.932770,245.905273
	C181.226303,250.278854 174.519836,254.652420 167.465424,259.038452
	C173.924850,250.384949 175.337021,240.096832 176.145294,229.254700
z"/>
    <path fill="#A16800" opacity="1.000000" stroke="none"
          d="
M170.941956,416.971039
	C158.886612,401.808594 149.605026,384.953796 140.951630,367.366089
	C149.033691,378.840302 157.158005,390.633789 165.061859,402.573212
	C167.973236,406.971069 170.364441,411.713287 172.723511,416.641479
	C171.950058,416.980042 171.445999,416.975555 170.941956,416.971039
z"/>
    <path fill="#895500" opacity="1.000000" stroke="none"
          d="
M452.030701,458.097412
	C446.283539,461.046783 440.536346,463.996155 434.122498,466.843079
	C431.630951,464.775024 429.806091,462.809479 428.192871,460.585358
	C434.250061,457.539551 440.095673,454.752319 446.245972,452.116150
	C448.377350,454.210663 450.204041,456.154022 452.030701,458.097412
z"/>
    <path fill="#AAAAAA" opacity="1.000000" stroke="none"
          d="
M273.860870,85.730713
	C272.169861,85.776192 270.478882,85.821663 268.389557,85.457031
	C270.331818,81.398323 272.672363,77.749718 275.012939,74.101112
	C283.380554,73.557442 289.262756,77.721916 293.887939,84.801987
	C293.544800,87.640167 293.285309,89.785553 293.025848,91.930946
	C291.538269,91.060875 290.050659,90.190811 288.277527,88.755836
	C288.283051,83.748680 286.012451,80.925720 281.902649,80.123932
	C277.665161,79.297256 274.567108,81.030334 273.860870,85.730713
z"/>
    <path fill="#7B4C00" opacity="1.000000" stroke="none"
          d="
M427.981232,460.843933
	C429.806091,462.809479 431.630951,464.775024 433.764404,466.895264
	C428.295471,470.357788 422.517914,473.665710 416.196472,476.748749
	C413.372681,475.319031 411.092773,474.114197 408.994141,472.619171
	C415.444000,468.500641 421.712616,464.672272 427.981232,460.843933
z"/>
    <path fill="#986000" opacity="1.000000" stroke="none"
          d="
M452.384003,458.036621
	C450.204041,456.154022 448.377350,454.210663 446.458252,451.847443
	C451.552246,447.940521 456.738647,444.453430 462.241028,441.104004
	C464.388458,442.532471 466.219879,443.823273 468.051270,445.114136
	C464.914612,448.286499 461.908478,451.605225 458.585907,454.569214
	C456.936218,456.040863 454.705261,456.860931 452.384003,458.036621
z"/>
    <path fill="#5E3900" opacity="1.000000" stroke="none"
          d="
M155.473511,502.635315
	C153.839310,503.998047 152.205109,505.360779 150.259918,506.883423
	C143.010208,504.553040 136.073822,502.056213 129.129517,499.581726
	C128.361328,499.308014 127.547684,499.161926 126.414825,498.565857
	C127.055840,496.504974 128.037155,494.834900 129.391663,493.168152
	C138.334396,496.326111 146.903961,499.480713 155.473511,502.635315
z"/>
    <path fill="#5B5B5B" opacity="1.000000" stroke="none"
          d="
M367.051514,279.828033
	C363.577606,280.262329 360.550751,280.705688 356.982178,281.228394
	C357.329224,274.737000 365.521698,271.029114 360.919861,263.934113
	C367.097565,266.285126 371.163452,270.187897 373.673615,275.434296
	C375.236237,278.700226 373.090973,280.127747 367.051514,279.828033
z"/>
    <path fill="#5E3900" opacity="1.000000" stroke="none"
          d="
M387.313446,502.740601
	C385.042999,500.799438 383.069214,498.721954 381.250305,496.038239
	C385.982574,491.968323 390.559967,488.504639 395.471130,485.075317
	C397.549347,486.435638 399.293762,487.761688 401.038147,489.087738
	C396.562134,493.593262 392.086121,498.098755 387.313446,502.740601
z"/>
    <path fill="#C47D02" opacity="1.000000" stroke="none"
          d="
M393.986053,396.981628
	C389.262482,398.321472 384.613373,400.155762 379.797241,400.881104
	C373.172577,401.878906 369.099823,397.774353 366.135651,392.021118
	C377.850616,397.892548 389.150421,396.561188 400.560638,390.214142
	C400.954865,391.015839 400.964508,391.504395 400.974182,391.992981
	C400.974182,391.992981 400.913727,392.467407 400.559509,392.750549
	C398.132233,394.349670 396.059143,395.665649 393.986053,396.981628
z"/>
    <path fill="#6D4300" opacity="1.000000" stroke="none"
          d="
M401.339478,488.927429
	C399.293762,487.761688 397.549347,486.435638 395.592560,484.768799
	C399.857758,480.588409 404.335327,476.748871 408.812897,472.909363
	C411.092773,474.114197 413.372681,475.319031 415.845886,476.811218
	C411.239716,480.988037 406.440247,484.877563 401.339478,488.927429
z"/>
    <path fill="#6D4300" opacity="1.000000" stroke="none"
          d="
M129.018463,493.164856
	C128.037155,494.834900 127.055840,496.504974 126.026138,498.495361
	C117.786018,496.762817 109.594284,494.709900 101.455872,492.211182
	C102.344940,490.554382 103.180695,489.343353 104.418777,488.126587
	C112.886887,489.802185 120.952667,491.483521 129.018463,493.164856
z"/>
    <path fill="#AB6E00" opacity="1.000000" stroke="none"
          d="
M56.175446,444.080475
	C55.156208,446.808380 54.136967,449.536285 52.786194,452.801636
	C51.618107,454.895630 50.781555,456.452148 49.560387,458.013428
	C47.173676,458.341400 45.171577,458.664642 43.169479,458.987885
	C45.778435,452.570831 48.387394,446.153809 51.449089,439.312439
	C53.608673,438.592255 55.315521,438.296387 57.008598,438.390991
	C56.721706,440.547821 56.448578,442.314148 56.175446,444.080475
z"/>
    <path fill="#B87600" opacity="1.000000" stroke="none"
          d="
M57.022369,438.000549
	C55.315521,438.296387 53.608673,438.592255 51.534225,438.936157
	C51.117939,432.597992 51.069256,426.211731 51.094578,419.401917
	C52.870869,418.346008 54.573158,417.713715 56.634460,417.477722
	C57.003109,424.582855 57.012741,431.291687 57.022369,438.000549
z"/>
    <path fill="#DA9101" opacity="1.000000" stroke="none"
          d="
M208.022247,156.958969
	C206.139465,155.822479 204.256699,154.685989 202.179932,152.824738
	C201.989410,150.115387 202.174942,148.110352 201.954681,146.150925
	C201.603439,143.026367 200.982193,139.932175 200.475113,136.825134
	C201.664230,135.429749 202.853348,134.034378 204.457214,132.193985
	C205.550400,131.392471 206.228836,131.035995 206.935669,131.171814
	C207.316788,140.095734 207.669510,148.527344 208.022247,156.958969
z"/>
    <path fill="#A16800" opacity="1.000000" stroke="none"
          d="
M468.367401,444.939575
	C466.219879,443.823273 464.388458,442.532471 462.306274,440.758850
	C463.381683,436.846527 464.707855,433.417053 466.033997,429.987579
	C466.025146,428.572937 466.016327,427.158295 466.054382,425.321655
	C473.255707,431.127167 474.007202,436.908539 468.367401,444.939575
z"/>
    <path fill="#7B4C00" opacity="1.000000" stroke="none"
          d="
M104.016441,488.132324
	C103.180695,489.343353 102.344940,490.554382 101.211670,491.910706
	C94.415710,490.604340 87.917282,489.152710 81.228241,487.063019
	C81.366493,485.344513 81.695351,484.264069 82.394211,483.197083
	C89.848289,484.851166 96.932365,486.491730 104.016441,488.132324
z"/>
    <path fill="#7D5107" opacity="1.000000" stroke="none"
          d="
M171.069473,417.297272
	C171.445999,416.975555 171.950058,416.980042 172.833191,416.983246
	C176.709885,421.699677 180.207504,426.417419 183.818192,431.435608
	C185.949722,434.432617 187.968170,437.129089 189.948425,440.492218
	C189.157761,441.794556 188.405304,442.430267 187.403931,442.910767
	C186.136429,441.783691 185.117828,440.811798 184.099243,439.839874
	C179.798492,432.434418 175.497742,425.028961 171.069473,417.297272
z"/>
    <path fill="#A16800" opacity="1.000000" stroke="none"
          d="
M43.076763,459.396240
	C45.171577,458.664642 47.173676,458.341400 49.441154,458.396484
	C50.084370,462.858215 50.462204,466.941589 50.505062,471.061035
	C48.417713,472.081482 46.665333,473.065857 44.912956,474.050232
	C40.873680,469.761566 41.477695,464.844177 43.076763,459.396240
z"/>
    <path fill="#895500" opacity="1.000000" stroke="none"
          d="
M82.024200,483.183594
	C81.695351,484.264069 81.366493,485.344513 81.003067,486.766022
	C74.444084,485.306061 67.919662,483.505096 61.318527,481.068909
	C61.505856,479.523865 61.769894,478.614044 62.445042,477.770020
	C69.245499,479.618408 75.634850,481.401001 82.024200,483.183594
z"/>
    <path fill="#C47D02" opacity="1.000000" stroke="none"
          d="
M200.214645,137.019821
	C200.982193,139.932175 201.603439,143.026367 201.954681,146.150925
	C202.174942,148.110352 201.989410,150.115387 201.972290,152.571503
	C200.514847,153.043045 199.071030,153.043045 197.192444,153.084625
	C193.052734,149.026108 196.421921,145.153503 197.293701,141.276352
	C197.626144,139.797760 199.035568,138.561310 200.214645,137.019821
z"/>
    <path fill="#DADAD9" opacity="1.000000" stroke="none"
          d="
M259.941193,87.887428
	C257.226349,94.476501 253.664200,100.859833 254.888504,108.897034
	C249.998688,102.830215 251.580078,96.175598 255.078934,89.264191
	C257.103424,88.649414 258.522308,88.268417 259.941193,87.887428
z"/>
    <path fill="#986000" opacity="1.000000" stroke="none"
          d="
M62.033936,477.704224
	C61.769894,478.614044 61.505856,479.523865 61.100166,480.765289
	C55.712143,478.956238 50.465763,476.815613 45.066170,474.362579
	C46.665333,473.065857 48.417713,472.081482 50.710869,471.342712
	C54.845741,473.626953 58.439838,475.665588 62.033936,477.704224
z"/>
    <path fill="#5B5B5B" opacity="1.000000" stroke="none"
          d="
M408.036682,360.397400
	C410.632751,361.188385 413.214386,362.355011 415.974609,363.843506
	C412.027008,366.758667 407.900879,369.351959 403.774750,371.945251
	C403.549744,371.552124 403.324738,371.158966 403.099762,370.765839
	C404.740570,367.434906 406.381409,364.104004 408.036682,360.397400
z"/>
    <path fill="#434343" opacity="1.000000" stroke="none"
          d="
M287.590393,70.263855
	C285.510284,69.046898 283.738129,68.029373 281.965942,67.011841
	C287.948517,63.787792 291.106964,68.561386 294.907440,70.888298
	C296.169952,71.661293 296.286407,74.306137 296.926849,76.095215
	C296.478241,76.261642 296.029663,76.428070 295.581085,76.594498
	C293.020172,74.550766 290.459259,72.507027 287.590393,70.263855
z"/>
    <path fill="#989898" opacity="1.000000" stroke="none"
          d="
M274.622131,74.019730
	C272.672363,77.749718 270.331818,81.398323 267.969788,85.400620
	C266.906799,85.883980 265.865265,86.013657 264.412018,85.698700
	C264.639282,82.448677 265.278259,79.643303 265.917236,76.837936
	C268.688599,75.871414 271.459991,74.904884 274.622131,74.019730
z"/>
    <path fill="#B7B7B5" opacity="1.000000" stroke="none"
          d="
M208.304199,87.123573
	C206.488327,88.098610 204.672470,89.073647 202.394409,89.726532
	C201.221176,87.522728 200.510132,85.641068 199.799103,83.759415
	C202.302017,81.857872 204.804932,79.956322 207.607849,78.454796
	C206.444977,81.687523 203.969925,84.568748 208.304199,87.123573
z"/>
    <path fill="#E1E1E0" opacity="1.000000" stroke="none"
          d="
M206.907288,130.679520
	C206.228836,131.035995 205.550400,131.392471 204.619690,131.887146
	C199.165527,127.039062 197.194412,120.632477 196.393738,113.347214
	C197.515350,115.068954 198.321991,117.362984 199.683624,119.258308
	C202.100830,122.622963 204.854660,125.745781 207.710449,129.259186
	C207.604568,129.925568 207.255920,130.302551 206.907288,130.679520
z"/>
    <path fill="#7F7F80" opacity="1.000000" stroke="none"
          d="
M265.577759,76.898773
	C265.278259,79.643303 264.639282,82.448677 264.018829,85.667404
	C262.836456,86.540314 261.635559,86.999870 260.187927,87.673431
	C258.522308,88.268417 257.103424,88.649414 255.313599,88.991287
	C258.374512,84.954651 261.806427,80.957130 265.577759,76.898773
z"/>
    <path fill="#C9C9C6" opacity="1.000000" stroke="none"
          d="
M208.693420,87.119560
	C203.969925,84.568748 206.444977,81.687523 207.961517,78.496506
	C208.454300,78.040070 208.893417,77.941948 209.824066,78.236542
	C211.226120,81.377869 212.136642,84.126465 213.047165,86.875069
	C211.725662,86.955231 210.404160,87.035393 208.693420,87.119560
z"/>
    <path fill="#E1E1E0" opacity="1.000000" stroke="none"
          d="
M292.529907,129.723328
	C291.326843,129.864670 290.348633,129.710693 289.161926,129.341705
	C292.332062,124.124260 295.710724,119.121826 299.421265,114.046448
	C297.420319,119.125000 295.087555,124.276497 292.529907,129.723328
z"/>
    <path fill="#B7B7B5" opacity="1.000000" stroke="none"
          d="
M213.460815,86.903656
	C212.136642,84.126465 211.226120,81.377869 210.155899,78.308533
	C212.492462,78.554878 214.988708,79.121956 217.730682,80.355499
	C217.992355,82.975296 218.008316,84.928642 218.024261,86.881981
	C216.641006,86.898735 215.257736,86.915497 213.460815,86.903656
z"/>
    <path fill="#F6AD00" opacity="1.000000" stroke="none"
          d="
M289.898743,139.298431
	C292.815765,138.322556 295.628906,137.647980 298.867554,136.948593
	C299.606689,138.047852 299.920349,139.171921 300.152283,140.650787
	C297.710907,141.507187 295.320770,141.898315 292.999481,142.538788
	C290.206146,143.309540 289.439972,142.130081 289.898743,139.298431
z"/>
    <path fill="#7F7F80" opacity="1.000000" stroke="none"
          d="
M199.488647,83.935242
	C200.510132,85.641068 201.221176,87.522728 202.050873,89.769638
	C200.301407,92.028114 198.433289,93.921326 196.234634,95.864517
	C196.995468,91.980026 198.086838,88.045555 199.488647,83.935242
z"/>
    <path fill="#989898" opacity="1.000000" stroke="none"
          d="
M293.228180,92.196198
	C293.285309,89.785553 293.544800,87.640167 293.978210,85.123802
	C295.756195,88.261589 297.360260,91.770348 298.693451,95.727440
	C298.257416,96.199463 298.092255,96.223160 297.927124,96.246857
	C296.428253,94.985054 294.929382,93.723251 293.228180,92.196198
z"/>
    <path fill="#CB8400" opacity="1.000000" stroke="none"
          d="
M290.180695,160.854126
	C292.589355,157.256790 295.358063,153.682190 298.446167,150.036987
	C298.179932,152.322250 297.594360,154.678101 296.851562,157.336105
	C294.643097,158.717819 292.591919,159.797348 290.180695,160.854126
z"/>
    <path fill="#434343" opacity="1.000000" stroke="none"
          d="
M226.835571,77.665756
	C222.877335,74.676544 219.240952,71.687073 215.604584,68.697609
	C220.879837,69.932022 225.795700,71.595482 226.835571,77.665756
z"/>
    <path fill="#AAAAAA" opacity="1.000000" stroke="none"
          d="
M218.433258,86.936607
	C218.008316,84.928642 217.992355,82.975296 217.979095,80.602661
	C220.360504,82.477997 222.739182,84.772636 225.236435,87.381912
	C223.184082,87.461456 221.013153,87.226349 218.433258,86.936607
z"/>
    <path fill="#EEA700" opacity="1.000000" stroke="none"
          d="
M358.638428,375.564087
	C357.551758,377.511383 356.535126,379.052765 355.260803,380.797699
	C353.967255,377.432434 354.410156,374.300385 357.996246,371.963928
	C358.456360,373.005951 358.582397,374.082092 358.638428,375.564087
z"/>
    <path fill="#E1E1E0" opacity="1.000000" stroke="none"
          d="
M300.096405,110.637901
	C299.770142,108.183029 299.590881,105.380096 299.685120,102.295395
	C300.053558,104.772362 300.148499,107.531105 300.096405,110.637901
z"/>
    <path fill="#DADAD9" opacity="1.000000" stroke="none"
          d="
M242.282959,101.720360
	C243.886902,102.236549 245.314835,102.489037 246.742767,102.741524
	C246.808075,102.510254 246.873383,102.278984 246.938705,102.047722
	C245.328125,101.850700 243.717545,101.653679 242.282959,101.720360
z"/>
    <path fill="#E1E1E0" opacity="1.000000" stroke="none"
          d="
M297.948914,96.561188
	C298.092255,96.223160 298.257416,96.199463 298.665283,96.114662
	C299.228210,96.832611 299.548431,97.611664 299.809570,98.708694
	C299.157227,98.309624 298.563965,97.592567 297.948914,96.561188
z"/>
    <path fill="#E19D00" opacity="1.000000" stroke="none"
          d="
M401.283844,391.843262
	C400.964508,391.504395 400.954865,391.015839 400.923584,390.161194
	C401.368561,389.474457 401.835114,389.153748 402.594147,388.779907
	C402.455566,389.715698 402.024536,390.704620 401.283844,391.843262
z"/>
    <path fill="#C9C9C6" opacity="1.000000" stroke="none"
          d="
M318.278381,427.790070
	C316.974670,418.082458 315.953217,408.382904 315.055115,398.671967
	C314.129944,388.669098 317.740234,383.045685 330.629944,384.366699
	C331.306366,393.871765 331.412933,402.962036 331.399597,412.436218
	C331.152283,413.888397 331.024902,414.956635 330.897522,416.024902
	C326.803314,419.947662 322.709076,423.870392 318.278381,427.790070
z"/>
    <path fill="#6D4300" opacity="1.000000" stroke="none"
          d="
M330.905426,416.458771
	C331.024902,414.956635 331.152283,413.888397 331.787415,412.425720
	C333.863922,412.020844 335.432709,412.010406 337.001465,412.000000
	C337.232300,414.000183 337.463104,416.000397 337.507690,418.722839
	C336.005981,427.312744 334.690521,435.180420 333.032959,442.940674
	C331.165436,442.216461 329.639984,441.599670 328.114563,440.982880
	C329.047485,432.952789 329.980408,424.922729 330.905426,416.458771
z"/>
    <path fill="#503000" opacity="1.000000" stroke="none"
          d="
M333.789490,487.021362
	C330.455048,485.683746 327.120605,484.346130 323.416626,482.999573
	C323.379272,476.938629 323.711395,470.886627 324.450378,464.461853
	C326.597534,464.729492 328.337799,465.369873 330.105774,466.463989
	C331.352173,473.618958 332.570831,480.320160 333.789490,487.021362
z"/>
    <path fill="#5E3900" opacity="1.000000" stroke="none"
          d="
M330.078064,466.010193
	C328.337799,465.369873 326.597534,464.729492 324.516235,464.031738
	C325.421478,456.572815 326.667755,449.171234 328.014282,441.376282
	C329.639984,441.599670 331.165436,442.216461 332.970703,443.376526
	C332.193054,451.283295 331.135559,458.646729 330.078064,466.010193
z"/>
    <path fill="#6D4300" opacity="1.000000" stroke="none"
          d="
M187.652832,443.065948
	C188.405304,442.430267 189.157761,441.794556 190.040741,440.800049
	C193.333710,444.432556 196.496140,448.423828 199.938171,452.946198
	C200.517639,453.640930 200.817490,453.804565 201.117355,453.968201
	C201.117355,453.968201 201.039047,453.908051 201.067444,453.867737
	C201.982697,456.299561 202.869568,458.771729 203.436615,461.614777
	C201.740189,462.324188 200.363571,462.662659 198.741562,462.748474
	C194.881729,456.019196 191.267288,449.542572 187.652832,443.065948
z"/>
    <path fill="#503000" opacity="1.000000" stroke="none"
          d="
M198.986969,463.001129
	C200.363571,462.662659 201.740189,462.324188 203.468506,461.966125
	C204.569031,467.324615 205.317841,472.702606 206.045593,478.541962
	C203.888657,479.663940 201.752808,480.324585 199.243668,480.554932
	C198.909225,474.416809 198.948090,468.708954 198.986969,463.001129
z"/>
    <path fill="#DF8900" opacity="1.000000" stroke="none"
          d="
M330.105774,466.463989
	C331.135559,458.646729 332.193054,451.283295 333.312805,443.483948
	C334.690521,435.180420 336.005981,427.312744 337.539246,419.098419
	C340.393036,432.818146 338.964386,446.856689 337.173187,460.838623
	C335.857239,471.110718 343.912445,480.661591 355.734497,480.830841
	C368.132233,481.008362 380.152008,478.494110 390.873688,471.702362
	C396.617523,468.063812 401.915710,463.497040 408.041290,460.741333
	C416.130859,457.102142 424.743225,454.509705 433.298645,452.051361
	C443.253693,449.190857 453.351288,446.822510 460.254333,438.213867
	C462.209167,435.775970 463.749237,433.005493 465.756805,430.187561
	C464.707855,433.417053 463.381683,436.846527 461.990265,440.621155
	C456.738647,444.453430 451.552246,447.940521 446.153564,451.696350
	C440.095673,454.752319 434.250061,457.539551 428.192871,460.585327
	C421.712616,464.672272 415.444000,468.500641 408.994141,472.619171
	C404.335327,476.748871 399.857758,480.588409 395.258789,484.734467
	C390.559967,488.504639 385.982574,491.968323 381.199463,495.695221
	C373.626678,499.133850 366.009857,500.820557 357.480896,499.838196
	C348.502563,497.457184 340.096497,494.859619 334.017334,487.279297
	C332.570831,480.320160 331.352173,473.618958 330.105774,466.463989
z"/>
    <path fill="#EB9900" opacity="1.000000" stroke="none"
          d="
M198.741577,462.748474
	C198.948090,468.708954 198.909225,474.416809 198.861359,480.554260
	C194.538895,492.106323 187.581848,500.925659 175.394150,503.184235
	C169.247269,504.323334 162.641357,502.985565 155.858276,502.701538
	C146.903961,499.480713 138.334396,496.326111 129.391647,493.168182
	C120.952667,491.483521 112.886887,489.802185 104.418777,488.126587
	C96.932365,486.491730 89.848289,484.851166 82.394211,483.197083
	C75.634850,481.401001 69.245499,479.618408 62.445045,477.770020
	C58.439838,475.665588 54.845741,473.626953 51.045841,471.306641
	C50.462204,466.941589 50.084370,462.858215 49.825768,458.391724
	C50.781555,456.452148 51.618107,454.895630 52.731682,453.164673
	C54.647942,463.101257 62.416214,464.708557 70.720695,467.246918
	C94.936897,474.648956 120.630180,476.314697 144.061584,486.757202
	C153.909912,491.146240 164.089706,491.662872 174.325928,486.466431
	C185.453415,480.817505 189.116882,466.111542 187.648254,457.573181
	C186.671478,451.894318 185.260498,446.290100 184.071548,440.246185
	C185.117828,440.811798 186.136429,441.783691 187.403931,442.910767
	C191.267288,449.542572 194.881729,456.019196 198.741577,462.748474
z"/>
    <path fill="#E1E1E0" opacity="1.000000" stroke="none"
          d="
M214.996948,333.901764
	C215.112488,314.862213 215.652496,296.351013 221.013489,278.243500
	C220.362076,311.164551 219.710648,344.085571 219.045181,377.717072
	C218.038162,375.412140 216.891129,373.510101 216.360107,371.449310
	C213.679489,361.046417 213.094101,350.517944 214.793060,339.873413
	C215.079269,338.080200 214.939377,336.218964 214.996948,333.901764
z"/>
    <path fill="#D0D0CE" opacity="1.000000" stroke="none"
          d="
M271.032867,236.048676
	C281.418610,235.061295 291.804321,234.073883 302.657104,233.393982
	C305.631927,234.812881 308.084106,236.077728 310.656860,237.009766
	C323.484802,241.657059 331.918579,252.348343 331.957764,264.163849
	C329.397125,262.014557 326.836487,259.865265 324.127014,257.041199
	C323.291931,254.727798 322.925323,252.838959 321.869110,251.490051
	C313.108398,240.301590 301.041687,237.284500 287.592407,238.179718
	C286.347565,238.262573 285.210327,239.961563 284.023132,240.910141
	C279.970306,240.265930 275.917511,239.621735 271.435608,238.601532
	C271.015289,237.499924 271.024078,236.774292 271.032867,236.048676
z"/>
    <path fill="#DADAD9" opacity="1.000000" stroke="none"
          d="
M332.008972,264.492493
	C331.918579,252.348343 323.484802,241.657059 310.656860,237.009766
	C308.084106,236.077728 305.631927,234.812881 303.061768,233.344574
	C304.768127,232.010941 306.536865,231.034241 308.707031,230.365280
	C314.070679,233.115891 319.032867,235.558762 323.995056,238.001648
	C328.888184,245.433670 334.077271,252.694229 338.530518,260.381073
	C340.342621,263.509094 340.556152,267.563202 341.497040,271.195923
	C340.909851,271.468445 340.322662,271.740997 339.735504,272.013519
	C337.177063,269.616058 334.618622,267.218597 332.008972,264.492493
z"/>
    <path fill="#C9C9C6" opacity="1.000000" stroke="none"
          d="
M284.410431,240.989761
	C285.210327,239.961563 286.347565,238.262573 287.592407,238.179718
	C301.041687,237.284500 313.108398,240.301590 321.869110,251.490051
	C322.925323,252.838959 323.291931,254.727798 323.968414,256.753754
	C312.067566,248.951172 298.833618,244.033203 284.410431,240.989761
z"/>
    <path fill="#EFEFED" opacity="1.000000" stroke="none"
          d="
M225.980957,241.012466
	C223.023788,239.108063 220.066635,237.203674 216.921509,235.178238
	C222.861801,233.565750 228.902985,231.669418 230.087967,225.928070
	C232.979095,229.342606 236.199554,233.146057 239.419998,236.949524
	C240.232224,236.349243 241.044449,235.748962 241.856674,235.148682
	C239.109772,237.335571 236.362869,239.522461 233.252075,241.508881
	C230.695358,238.652435 228.431305,237.658279 225.980957,241.012466
z"/>
    <path fill="#E1E1E0" opacity="1.000000" stroke="none"
          d="
M323.992737,237.598572
	C319.032867,235.558762 314.070679,233.115891 309.051971,230.318146
	C312.823212,224.196671 316.650940,218.430084 319.606812,213.976974
	C320.839783,220.507584 322.415100,228.851547 323.992737,237.598572
z"/>
    <path fill="#895500" opacity="1.000000" stroke="none"
          d="
M337.069092,411.535980
	C335.432709,412.010406 333.863922,412.020844 331.907349,412.041779
	C331.412933,402.962036 331.306366,393.871765 331.072662,384.377930
	C331.011078,383.811096 331.076569,383.647888 331.603394,383.258331
	C333.987762,383.695923 335.910828,384.359863 337.833862,385.023773
	C337.601471,393.706512 337.369110,402.389221 337.069092,411.535980
z"/>
    <path fill="#986000" opacity="1.000000" stroke="none"
          d="
M337.900940,384.560425
	C335.910828,384.359863 333.987762,383.695923 331.717896,383.020630
	C331.190186,378.904510 330.393524,374.702911 331.019012,370.724976
	C331.539856,367.412445 333.730255,364.362427 335.497192,361.077942
	C336.531494,368.672150 337.249725,376.384613 337.900940,384.560425
z"/>
    <path fill="#E1E1E0" opacity="1.000000" stroke="none"
          d="
M188.272461,245.798798
	C187.652710,243.854523 187.372650,241.803772 187.056808,239.363037
	C191.956787,238.973038 196.892548,238.973038 201.828308,238.973038
	C201.914780,239.215912 202.001251,239.458771 202.087723,239.701645
	C197.595871,241.698532 193.104019,243.695419 188.272461,245.798798
z"/>
    <path fill="#E1E1E0" opacity="1.000000" stroke="none"
          d="
M226.000519,241.428741
	C228.431305,237.658279 230.695358,238.652435 232.951141,241.660187
	C231.126968,245.621185 229.239838,249.230438 227.395752,252.757370
	C226.946915,249.196991 226.483505,245.521011 226.000519,241.428741
z"/>
    <path fill="#E1E1E0" opacity="1.000000" stroke="none"
          d="
M270.564331,236.024628
	C271.024078,236.774292 271.015289,237.499924 271.020172,238.587677
	C266.396729,238.226166 261.759644,237.502518 257.122528,236.778854
	C257.136078,236.519424 257.149628,236.260010 257.163147,236.000595
	C261.474030,236.000595 265.784912,236.000595 270.564331,236.024628
z"/>
    <path fill="#010101" opacity="1.000000" stroke="none"
          d="
M201.089905,453.674286
	C200.817490,453.804565 200.517639,453.640930 200.091919,453.245728
	C200.331528,453.136200 200.696991,453.258301 201.089905,453.674286
z"/>
    <path fill="#EB9900" opacity="1.000000" stroke="none"
          d="
M57.008606,438.391022
	C57.012741,431.291687 57.003109,424.582855 56.978249,417.448364
	C56.988293,416.244080 57.013561,415.465485 57.079651,414.297668
	C58.251396,416.624023 60.062897,419.262329 60.381847,422.070129
	C61.236683,429.595459 62.981270,437.450714 56.505737,443.993591
	C56.448578,442.314148 56.721706,440.547821 57.008606,438.391022
z"/>
    <path fill="#E19D00" opacity="1.000000" stroke="none"
          d="
M355.000854,383.425110
	C355.511597,384.866730 356.008362,386.736755 356.254181,388.802643
	C355.832672,388.998596 355.662170,388.998718 355.235718,388.997253
	C354.982117,387.281647 354.984497,385.567566 355.000854,383.425110
z"/>
    <path fill="#C47D02" opacity="1.000000" stroke="none"
          d="
M255.641479,181.159286
	C252.423172,180.794998 249.545944,180.018021 246.685425,180.075287
	C236.985153,180.269562 228.489655,177.097549 220.964874,171.238312
	C219.464706,170.070206 218.667679,167.999069 218.153595,166.205017
	C220.183395,166.398026 221.606018,166.730377 223.062164,167.415665
	C226.530899,173.082596 231.961304,171.896561 236.986038,172.032181
	C239.547241,173.023788 242.132004,174.908432 244.665283,174.841614
	C252.647247,174.631088 260.609894,173.688263 269.037964,173.036865
	C264.994049,175.739517 260.492126,178.434219 255.641479,181.159286
z"/>
    <path fill="#7B4C00" opacity="1.000000" stroke="none"
          d="
M223.028656,167.062744
	C221.606018,166.730377 220.183395,166.398026 218.397095,166.005371
	C215.707214,164.165253 213.380981,162.385437 211.356583,160.315399
	C212.050461,160.155792 212.442520,160.286407 213.073669,160.651932
	C215.207962,161.597656 217.103180,162.308456 219.325592,163.218140
	C222.440369,163.840897 225.227936,164.264755 228.015503,164.688614
	C230.744949,164.515274 233.474411,164.341919 236.601883,164.068726
	C238.773621,163.763367 240.547333,163.557846 243.063629,163.194733
	C249.872787,161.033249 255.939362,159.029373 262.005920,157.025497
	C265.431946,155.022141 268.857941,153.018784 272.633423,150.983994
	C272.028259,152.149857 271.268524,153.602814 270.087494,154.503067
	C262.241272,160.483887 253.049362,163.204636 242.804977,165.413086
	C235.706833,166.134277 229.367752,166.598511 223.028656,167.062744
z"/>
    <path fill="#EEA700" opacity="1.000000" stroke="none"
          d="
M223.062164,167.415665
	C229.367752,166.598511 235.706833,166.134277 242.473267,165.570251
	C241.061157,167.472290 239.221695,169.474121 237.184143,171.754059
	C231.961304,171.896561 226.530899,173.082596 223.062164,167.415665
z"/>
    <path fill="#7B4C00" opacity="1.000000" stroke="none"
          d="
M273.277710,151.075531
	C273.425873,150.566971 273.896576,150.155457 274.684265,149.845917
	C274.534271,150.356125 274.067230,150.764359 273.277710,151.075531
z"/>
    <path fill="#7B4C00" opacity="1.000000" stroke="none"
          d="
M275.208221,149.957687
	C275.104584,149.695297 275.259857,149.400574 275.703003,149.084778
	C275.816284,149.350922 275.641724,149.638138 275.208221,149.957687
z"/>
    <path fill="#F6AD00" opacity="1.000000" stroke="none"
          d="
M286.234100,139.877029
	C286.106506,139.656754 286.284424,139.404266 286.779144,139.135040
	C286.886963,139.348343 286.701538,139.590515 286.234100,139.877029
z"/>
    <path fill="#060606" opacity="1.000000" stroke="none"
          d="
M277.297058,125.293564
	C273.401855,123.800652 269.916962,122.262733 266.188599,120.489937
	C263.832916,114.665489 262.126923,109.067429 263.937378,102.978577
	C265.560181,97.520897 268.481171,93.164803 274.350037,92.218399
	C280.176605,91.278801 284.654144,94.255852 287.761810,98.984695
	C294.668335,109.494125 289.054260,125.139717 277.297058,125.293564
M284.713928,106.842178
	C285.397522,106.399460 286.651886,105.984993 286.675385,105.509613
	C286.884705,101.281181 282.710358,97.982788 277.985260,98.661621
	C278.562561,102.426453 280.471283,105.078056 284.713928,106.842178
z"/>
    <path fill="#C9C9C6" opacity="1.000000" stroke="none"
          d="
M274.299133,85.820206
	C274.567108,81.030334 277.665161,79.297256 281.902649,80.123932
	C286.012451,80.925720 288.283051,83.748680 287.998627,88.591522
	C283.582611,87.964653 279.160004,86.937180 274.299133,85.820206
z"/>
    <path fill="#FFDA36" opacity="1.000000" stroke="none"
          d="
M241.985626,156.050018
	C237.139587,154.558105 238.788574,150.873001 239.693588,147.998199
	C240.612198,145.080170 242.479095,142.460663 243.987457,139.357849
	C246.331009,136.868988 248.358871,134.303680 250.980148,132.721542
	C253.419785,131.249084 256.491394,130.823685 259.633087,129.981171
	C259.987762,132.104599 259.994171,134.184189 259.720215,136.835327
	C258.434357,139.317520 257.704407,141.451141 256.372070,143.097214
	C252.275650,148.158295 248.800934,153.985779 241.985626,156.050018
z"/>
    <path fill="#FBD411" opacity="1.000000" stroke="none"
          d="
M242.039795,156.433014
	C248.800934,153.985779 252.275650,148.158295 256.372070,143.097214
	C257.704407,141.451141 258.434357,139.317520 259.709290,137.200851
	C260.652985,143.377182 261.327271,149.759567 262.003723,156.583710
	C255.939362,159.029373 249.872787,161.033249 243.402496,163.018555
	C242.697174,160.938660 242.395569,158.877335 242.039795,156.433014
z"/>
    <path fill="#060606" opacity="1.000000" stroke="none"
          d="
M212.449753,125.083687
	C203.262802,119.166183 199.903992,111.043655 203.174011,100.786499
	C204.012314,98.157021 206.584595,94.753960 208.896332,94.270706
	C211.532364,93.719650 215.561768,95.240128 217.588486,97.261299
	C222.889221,102.547478 223.808411,109.471329 222.158173,117.354454
	C220.261871,119.207130 218.683273,120.413162 216.816132,121.737717
	C215.168304,122.932060 213.809021,124.007874 212.449753,125.083687
M218.578720,103.204033
	C216.939957,101.478432 215.389542,99.649605 213.591049,98.110664
	C213.212326,97.786591 211.753098,98.327385 211.128052,98.862495
	C210.830505,99.117210 211.092194,100.458420 211.496384,101.025185
	C213.329117,103.595070 215.302933,106.064331 217.911133,109.462494
	C218.293137,107.117371 218.551147,105.533409 218.578720,103.204033
z"/>
    <path fill="#FAB801" opacity="1.000000" stroke="none"
          d="
M217.104675,121.619194
	C218.683273,120.413162 220.261871,119.207130 222.037872,117.840317
	C223.520172,117.152481 224.805084,116.625420 226.501617,116.050865
	C227.277695,131.935104 227.642151,147.866837 228.011047,164.243591
	C225.227936,164.264755 222.440369,163.840897 219.326050,162.747757
	C218.999374,150.313538 219.076431,138.547546 218.915115,126.784836
	C218.891403,125.055000 217.736313,123.340683 217.104675,121.619194
z"/>
    <path fill="#F6AD00" opacity="1.000000" stroke="none"
          d="
M216.816132,121.737717
	C217.736313,123.340683 218.891403,125.055000 218.915115,126.784836
	C219.076431,138.547546 218.999374,150.313538 218.998840,162.548859
	C217.103180,162.308456 215.207962,161.597656 213.124969,160.145889
	C212.958481,150.075699 213.062469,140.745209 212.921967,131.418427
	C212.897720,129.809265 211.835434,128.215729 211.252625,126.614983
	C211.550919,126.232712 211.849213,125.850433 212.298630,125.275925
	C213.809021,124.007874 215.168304,122.932060 216.816132,121.737717
z"/>
    <path fill="#EEA700" opacity="1.000000" stroke="none"
          d="
M211.018646,126.771164
	C211.835434,128.215729 212.897720,129.809265 212.921967,131.418427
	C213.062469,140.745209 212.958481,150.075699 212.885880,159.910965
	C212.442520,160.286407 212.050461,160.155792 211.355743,159.957825
	C211.053055,159.890457 211.013245,159.943481 210.858780,159.692474
	C210.141739,159.116928 209.579147,158.792404 209.016556,158.467896
	C208.749939,158.101852 208.483337,157.735809 208.119492,157.164368
	C207.669510,148.527344 207.316788,140.095734 206.935669,131.171814
	C207.255920,130.302551 207.604568,129.925568 208.066742,129.313248
	C209.048431,128.361038 209.916550,127.644188 211.018646,126.771164
z"/>
    <path fill="#E19D00" opacity="1.000000" stroke="none"
          d="
M393.986816,397.349854
	C396.059143,395.665649 398.132233,394.349670 400.542114,392.989075
	C400.559082,395.357147 400.868622,398.100037 399.806976,400.123596
	C395.867035,407.633362 389.643036,412.431427 380.976135,412.921021
	C372.716400,413.387665 366.902557,408.787659 362.314056,402.441986
	C361.579285,401.425842 361.432129,399.984802 361.012085,398.366455
	C364.291504,399.779358 368.044434,401.035370 370.762360,403.454346
	C378.257019,410.124786 390.409515,407.315704 393.986816,397.349854
z"/>
    <path fill="#7B4C00" opacity="1.000000" stroke="none"
          d="
M209.123260,158.808441
	C209.579147,158.792404 210.141739,159.116928 210.887543,159.708527
	C210.457169,159.700058 209.843567,159.424530 209.123260,158.808441
z"/>
    <path fill="#A16800" opacity="1.000000" stroke="none"
          d="
M248.401245,118.287506
	C250.950027,118.967804 253.130341,119.739952 255.310669,120.512100
	C255.057739,121.315552 254.804825,122.118996 254.551910,122.922440
	C252.368729,122.266434 250.150406,121.697968 248.043457,120.852051
	C247.755417,120.736404 248.022659,119.237701 248.401245,118.287506
z"/>
    <path fill="#787879" opacity="1.000000" stroke="none"
          d="
M284.380188,106.663628
	C280.471283,105.078056 278.562561,102.426453 277.985260,98.661621
	C282.710358,97.982788 286.884705,101.281181 286.675385,105.509613
	C286.651886,105.984993 285.397522,106.399460 284.380188,106.663628
z"/>
    <path fill="#5B5B5B" opacity="1.000000" stroke="none"
          d="
M218.693939,103.576736
	C218.551147,105.533409 218.293137,107.117371 217.911133,109.462494
	C215.302933,106.064331 213.329117,103.595070 211.496384,101.025185
	C211.092194,100.458420 210.830505,99.117210 211.128052,98.862495
	C211.753098,98.327385 213.212326,97.786591 213.591049,98.110664
	C215.389542,99.649605 216.939957,101.478432 218.693939,103.576736
z"/>
</svg>